<?xml version="1.0" standalone="no"?>
	<!DOCTYPE svg PUBLIC "-//W3C//DTD SVG 1.1//EN" "http://www.w3.org/Graphics/SVG/1.1/DTD/svg11.dtd">
	<svg width="100%" height="100%" viewBox="0 0 25 41" version="1.1" xmlns="http://www.w3.org/2000/svg" xmlns:xlink="http://www.w3.org/1999/xlink" xml:space="preserve" xmlns:serif="http://www.serif.com/" style="fill-rule:evenodd;clip-rule:evenodd;stroke-linejoin:round;stroke-miterlimit:1.41421;">
	<g><path id="svg_2" style="fill:#2f93d4;" d="M12.42,40.999c-0.926,-4.607 -2.559,-8.442 -4.536,-11.995c-1.467,-2.636 -3.167,-5.069 -4.739,-7.625c-0.525,-0.853 -0.978,-1.755 -1.482,-2.64c-1.008,-1.771 -1.826,-3.824 -1.774,-6.487c0.051,-2.602 0.793,-4.689 1.864,-6.396c1.761,-2.807 4.711,-5.108 8.668,-5.713c3.236,-0.494 6.27,0.341 8.422,1.616c1.758,1.042 3.119,2.434 4.154,4.074c1.08,1.712 1.824,3.735 1.887,6.373c0.031,1.352 -0.187,2.604 -0.495,3.642c-0.311,1.051 -0.812,1.93 -1.257,2.868c-0.87,1.832 -1.96,3.51 -3.054,5.189c-3.259,5.003 -6.318,10.104 -7.658,17.094l0,0Z"/>
	<path style="fill:#6fb5de;" d="M12.509,0l0.145,0.003l0.146,0.005l0.144,0.006l0.144,0.008l0.144,0.009l0.143,0.011l0.142,0.012l0.142,0.014l0.141,0.016l0.141,0.017l0.139,0.018l0.139,0.02l0.139,0.022l0.137,0.022l0.137,0.024l0.137,0.026l0.135,0.026l0.135,0.029l0.133,0.029l0.133,0.031l0.133,0.031l0.131,0.034l0.131,0.034l0.129,0.036l0.129,0.036l0.128,0.038l0.127,0.039l0.126,0.04l0.125,0.041l0.124,0.043l0.123,0.043l0.122,0.044l0.121,0.046l0.12,0.046l0.119,0.048l0.118,0.048l0.117,0.049l0.116,0.05l0.114,0.051l0.114,0.052l0.112,0.053l0.112,0.053l0.11,0.055l0.109,0.055l0.108,0.056l0.106,0.056l0.105,0.058l0.104,0.058l0.103,0.059l0.102,0.059l0.163,0.099l0.162,0.101l0.159,0.102l0.156,0.105l0.155,0.107l0.152,0.108l0.15,0.111l0.148,0.113l0.145,0.114l0.144,0.116l0.141,0.119l0.139,0.12l0.137,0.121l0.134,0.124l0.133,0.126l0.13,0.127l0.128,0.129l0.126,0.131l0.124,0.132l0.122,0.134l0.12,0.136l0.118,0.137l0.116,0.14l0.114,0.14l0.111,0.143l0.11,0.144l0.108,0.145l0.106,0.147l0.103,0.149l0.102,0.15l0.1,0.151l0.098,0.153l0.1,0.162l0.099,0.163l0.096,0.165l0.094,0.168l0.091,0.169l0.046,0.085l0.044,0.086l0.044,0.087l0.043,0.087l0.043,0.087l0.042,0.088l0.041,0.089l0.041,0.089l0.04,0.09l0.04,0.091l0.039,0.091l0.038,0.091l0.037,0.093l0.037,0.093l0.036,0.093l0.036,0.094l0.035,0.095l0.034,0.095l0.033,0.096l0.033,0.097l0.032,0.097l0.031,0.099l0.03,0.098l0.03,0.1l0.029,0.1l0.028,0.101l0.028,0.101l0.026,0.102l0.026,0.103l0.025,0.104l0.024,0.104l0.024,0.105l0.022,0.106l0.022,0.107l0.021,0.107l0.02,0.109l0.019,0.109l0.018,0.109l0.018,0.111l0.016,0.111l0.016,0.112l0.015,0.113l0.014,0.114l0.013,0.115l0.012,0.115l0.011,0.116l0.01,0.117l0.009,0.118l0.009,0.119l0.007,0.12l0.006,0.12l0.006,0.122l0.004,0.122l0.004,0.123l0.002,0.127l0.001,0.126l-0.001,0.125l-0.002,0.124l-0.003,0.124l-0.005,0.123l-0.006,0.123l-0.007,0.122l-0.008,0.121l-0.01,0.12l-0.011,0.119l-0.012,0.119l-0.013,0.118l-0.014,0.117l-0.015,0.116l-0.016,0.115l-0.017,0.114l-0.019,0.113l-0.019,0.113l-0.02,0.111l-0.021,0.11l-0.021,0.11l-0.023,0.108l-0.023,0.107l-0.024,0.106l-0.025,0.105l-0.026,0.104l-0.026,0.103l-0.027,0.102l-0.027,0.1l-0.028,0.099l-0.029,0.098l-0.029,0.098l-0.031,0.097l-0.032,0.096l-0.033,0.096l-0.033,0.094l-0.035,0.094l-0.036,0.092l-0.036,0.093l-0.037,0.091l-0.037,0.091l-0.039,0.09l-0.039,0.09l-0.079,0.178l-0.082,0.176l-0.083,0.175l-0.085,0.174l-0.17,0.347l-0.172,0.346l-0.085,0.175l-0.084,0.175l-0.082,0.171l-0.084,0.171l-0.084,0.169l-0.086,0.169l-0.087,0.168l-0.088,0.167l-0.089,0.167l-0.09,0.165l-0.091,0.166l-0.092,0.164l-0.093,0.164l-0.094,0.163l-0.095,0.163l-0.095,0.162l-0.096,0.162l-0.097,0.161l-0.097,0.161l-0.099,0.16l-0.197,0.319l-0.2,0.319l-0.202,0.317l-0.203,0.316l-0.204,0.315l-0.409,0.63l-0.305,0.47l-0.304,0.47l-0.301,0.471l-0.3,0.473l-0.149,0.238l-0.149,0.237l-0.147,0.239l-0.147,0.238l-0.147,0.24l-0.145,0.24l-0.145,0.241l-0.144,0.242l-0.144,0.242l-0.142,0.243l-0.141,0.244l-0.141,0.246l-0.139,0.246l-0.139,0.247l-0.137,0.248l-0.136,0.249l-0.135,0.25l-0.134,0.252l-0.133,0.253l-0.132,0.254l-0.13,0.255l-0.129,0.256l-0.128,0.258l-0.126,0.26l-0.125,0.261l-0.123,0.262l-0.122,0.264l-0.121,0.265l-0.119,0.267l-0.117,0.269l-0.116,0.27l-0.114,0.273l-0.112,0.273l-0.111,0.276l-0.109,0.278l-0.107,0.279l-0.105,0.282l-0.104,0.283l-0.101,0.286l-0.1,0.288l-0.097,0.289l-0.096,0.292l-0.094,0.294l-0.091,0.296l-0.09,0.299l-0.087,0.301l-0.085,0.303l-0.083,0.306l-0.081,0.308l-0.078,0.31l-0.076,0.313l-0.074,0.316l-0.072,0.318l-0.069,0.321l-0.066,0.324l-0.064,0.326l0,0l-0.044,-0.216l-0.045,-0.214l-0.046,-0.213l-0.047,-0.212l-0.048,-0.211l-0.049,-0.21l-0.05,-0.209l-0.051,-0.208l-0.052,-0.206l-0.053,-0.206l-0.053,-0.205l-0.055,-0.203l-0.056,-0.203l-0.056,-0.202l-0.058,-0.201l-0.058,-0.199l-0.06,-0.199l-0.06,-0.198l-0.061,-0.197l-0.062,-0.196l-0.063,-0.195l-0.064,-0.194l-0.064,-0.194l-0.066,-0.192l-0.066,-0.192l-0.067,-0.19l-0.068,-0.19l-0.069,-0.189l-0.07,-0.189l-0.07,-0.187l-0.071,-0.187l-0.072,-0.186l-0.073,-0.185l-0.073,-0.184l-0.074,-0.184l-0.075,-0.183l-0.076,-0.182l-0.076,-0.181l-0.077,-0.181l-0.078,-0.18l-0.079,-0.179l-0.079,-0.179l-0.08,-0.178l-0.081,-0.177l-0.081,-0.177l-0.082,-0.176l-0.082,-0.176l-0.084,-0.175l-0.083,-0.174l-0.085,-0.174l-0.085,-0.173l-0.086,-0.172l-0.086,-0.172l-0.087,-0.172l-0.088,-0.171l-0.088,-0.17l-0.178,-0.34l-0.18,-0.337l-0.182,-0.336l-0.184,-0.334l-0.139,-0.247l-0.139,-0.245l-0.141,-0.244l-0.142,-0.244l-0.143,-0.242l-0.144,-0.242l-0.145,-0.24l-0.146,-0.24l-0.146,-0.239l-0.148,-0.239l-0.148,-0.238l-0.149,-0.237l-0.299,-0.473l-0.301,-0.472l-0.302,-0.472l-0.303,-0.47l-0.304,-0.471l-0.302,-0.471l-0.302,-0.472l-0.301,-0.474l-0.15,-0.237l-0.149,-0.238l-0.148,-0.239l-0.148,-0.239l-0.097,-0.161l-0.096,-0.161l-0.095,-0.163l-0.094,-0.163l-0.093,-0.164l-0.091,-0.165l-0.183,-0.331l-0.362,-0.666l-0.184,-0.334l-0.093,-0.166l-0.094,-0.166l-0.094,-0.167l-0.093,-0.169l-0.091,-0.17l-0.09,-0.172l-0.088,-0.174l-0.087,-0.176l-0.084,-0.178l-0.083,-0.18l-0.08,-0.183l-0.04,-0.091l-0.039,-0.093l-0.038,-0.093l-0.038,-0.094l-0.037,-0.094l-0.036,-0.095l-0.036,-0.095l-0.035,-0.096l-0.034,-0.097l-0.034,-0.097l-0.033,-0.098l-0.032,-0.098l-0.032,-0.099l-0.031,-0.1l-0.03,-0.1l-0.029,-0.101l-0.028,-0.102l-0.028,-0.103l-0.026,-0.103l-0.026,-0.104l-0.025,-0.104l-0.024,-0.105l-0.024,-0.106l-0.022,-0.107l-0.021,-0.107l-0.021,-0.108l-0.019,-0.109l-0.019,-0.11l-0.017,-0.11l-0.017,-0.111l-0.015,-0.112l-0.014,-0.113l-0.014,-0.113l-0.012,-0.114l-0.011,-0.115l-0.01,-0.116l-0.009,-0.117l-0.008,-0.117l-0.007,-0.119l-0.005,-0.119l-0.005,-0.12l-0.003,-0.121l-0.002,-0.122l0,-0.122l0,-0.124l0.002,-0.124l0.003,-0.122l0.004,-0.121l0.005,-0.12l0.005,-0.119l0.007,-0.119l0.008,-0.117l0.009,-0.118l0.01,-0.116l0.01,-0.116l0.012,-0.115l0.013,-0.114l0.013,-0.113l0.014,-0.113l0.016,-0.112l0.016,-0.112l0.017,-0.11l0.018,-0.11l0.019,-0.109l0.02,-0.109l0.02,-0.108l0.022,-0.107l0.022,-0.106l0.023,-0.106l0.024,-0.105l0.024,-0.105l0.026,-0.103l0.026,-0.103l0.027,-0.103l0.028,-0.102l0.029,-0.101l0.029,-0.1l0.03,-0.1l0.031,-0.099l0.032,-0.098l0.032,-0.098l0.034,-0.097l0.033,-0.097l0.035,-0.096l0.035,-0.095l0.036,-0.094l0.037,-0.094l0.037,-0.094l0.038,-0.092l0.038,-0.092l0.04,-0.092l0.039,-0.091l0.041,-0.09l0.041,-0.089l0.042,-0.089l0.042,-0.089l0.043,-0.088l0.044,-0.087l0.044,-0.087l0.044,-0.086l0.046,-0.085l0.045,-0.085l0.047,-0.084l0.047,-0.084l0.095,-0.165l0.097,-0.164l0.1,-0.161l0.083,-0.131l0.085,-0.131l0.087,-0.129l0.089,-0.129l0.09,-0.128l0.092,-0.127l0.094,-0.126l0.096,-0.125l0.097,-0.125l0.099,-0.123l0.1,-0.122l0.103,-0.122l0.104,-0.12l0.105,-0.119l0.108,-0.118l0.109,-0.117l0.11,-0.115l0.113,-0.115l0.114,-0.113l0.116,-0.112l0.117,-0.111l0.119,-0.109l0.121,-0.108l0.122,-0.107l0.124,-0.105l0.125,-0.104l0.128,-0.102l0.129,-0.101l0.13,-0.099l0.132,-0.098l0.134,-0.096l0.135,-0.095l0.137,-0.093l0.139,-0.092l0.14,-0.09l0.142,-0.088l0.143,-0.086l0.145,-0.085l0.147,-0.083l0.148,-0.081l0.149,-0.079l0.152,-0.077l0.152,-0.076l0.155,-0.073l0.156,-0.072l0.157,-0.069l0.159,-0.068l0.161,-0.066l0.162,-0.063l0.164,-0.062l0.165,-0.059l0.167,-0.058l0.168,-0.055l0.17,-0.053l0.171,-0.05l0.173,-0.049l0.174,-0.046l0.176,-0.044l0.177,-0.042l0.179,-0.039l0.18,-0.037l0.182,-0.034l0.183,-0.032l0.185,-0.03l0.152,-0.022l0.151,-0.02l0.151,-0.019l0.15,-0.016l0.151,-0.015l0.149,-0.013l0.15,-0.011l0.149,-0.009l0.149,-0.007l0.148,-0.006l0.147,-0.003l0.148,-0.003l0.146,0l0.147,0.001Zm-0.279,1.608l-0.129,0.002l-0.129,0.003l-0.129,0.005l-0.13,0.006l-0.13,0.008l-0.13,0.01l-0.131,0.011l-0.131,0.013l-0.131,0.014l-0.132,0.016l-0.132,0.018l-0.131,0.019l-0.163,0.026l-0.161,0.028l-0.159,0.03l-0.157,0.033l-0.157,0.034l-0.155,0.036l-0.153,0.039l-0.152,0.04l-0.15,0.042l-0.15,0.044l-0.147,0.046l-0.147,0.048l-0.145,0.05l-0.143,0.052l-0.142,0.053l-0.141,0.055l-0.14,0.057l-0.138,0.059l-0.136,0.061l-0.136,0.062l-0.134,0.064l-0.132,0.065l-0.131,0.067l-0.13,0.069l-0.129,0.07l-0.127,0.072l-0.125,0.073l-0.125,0.075l-0.123,0.077l-0.121,0.078l-0.12,0.079l-0.119,0.081l-0.118,0.082l-0.116,0.084l-0.115,0.085l-0.113,0.086l-0.112,0.088l-0.111,0.089l-0.109,0.09l-0.108,0.092l-0.107,0.093l-0.105,0.094l-0.103,0.095l-0.102,0.096l-0.101,0.098l-0.1,0.099l-0.098,0.099l-0.096,0.101l-0.096,0.102l-0.093,0.103l-0.093,0.104l-0.09,0.105l-0.09,0.106l-0.088,0.107l-0.086,0.108l-0.085,0.109l-0.084,0.109l-0.082,0.11l-0.08,0.112l-0.079,0.112l-0.078,0.112l-0.076,0.114l-0.074,0.114l-0.073,0.114l-0.087,0.141l-0.085,0.143l-0.085,0.147l-0.039,0.07l-0.04,0.073l-0.04,0.073l-0.039,0.074l-0.039,0.075l-0.038,0.075l-0.038,0.076l-0.037,0.076l-0.037,0.076l-0.036,0.077l-0.035,0.078l-0.035,0.078l-0.035,0.078l-0.034,0.08l-0.033,0.079l-0.033,0.08l-0.032,0.081l-0.032,0.081l-0.031,0.082l-0.03,0.082l-0.03,0.083l-0.029,0.083l-0.029,0.084l-0.028,0.085l-0.027,0.085l-0.027,0.086l-0.026,0.086l-0.026,0.087l-0.024,0.087l-0.024,0.088l-0.024,0.089l-0.023,0.09l-0.022,0.09l-0.021,0.09l-0.021,0.091l-0.02,0.093l-0.02,0.092l-0.018,0.093l-0.018,0.094l-0.017,0.095l-0.017,0.095l-0.015,0.096l-0.015,0.097l-0.015,0.098l-0.013,0.098l-0.012,0.098l-0.012,0.1l-0.011,0.1l-0.011,0.101l-0.009,0.102l-0.009,0.103l-0.007,0.103l-0.007,0.104l-0.006,0.105l-0.006,0.106l-0.004,0.106l-0.003,0.107l-0.003,0.108l-0.001,0.109l-0.001,0.107l0.001,0.106l0.001,0.106l0.003,0.104l0.004,0.104l0.005,0.103l0.005,0.102l0.007,0.101l0.008,0.1l0.009,0.1l0.009,0.099l0.011,0.098l0.011,0.098l0.012,0.096l0.014,0.096l0.014,0.095l0.015,0.095l0.016,0.094l0.016,0.093l0.018,0.093l0.018,0.092l0.019,0.091l0.02,0.091l0.021,0.09l0.021,0.09l0.022,0.089l0.023,0.089l0.024,0.088l0.025,0.087l0.025,0.087l0.025,0.087l0.027,0.086l0.027,0.086l0.028,0.085l0.029,0.085l0.029,0.084l0.03,0.084l0.031,0.084l0.031,0.083l0.031,0.082l0.033,0.083l0.033,0.082l0.034,0.082l0.034,0.081l0.033,0.078l0.073,0.164l0.073,0.16l0.076,0.159l0.077,0.157l0.08,0.157l0.081,0.156l0.083,0.155l0.085,0.154l0.089,0.158l0.095,0.169l0.098,0.174l0.187,0.341l0.363,0.667l0.179,0.324l0.087,0.157l0.088,0.156l0.088,0.153l0.088,0.152l0.089,0.149l0.091,0.149l0.143,0.232l0.146,0.234l0.147,0.234l0.147,0.234l0.297,0.469l0.3,0.468l0.301,0.469l0.303,0.47l0.304,0.472l0.304,0.474l0.304,0.476l0.302,0.479l0.152,0.242l0.151,0.242l0.15,0.243l0.15,0.245l0.149,0.245l0.149,0.247l0.148,0.247l0.147,0.25l0.146,0.25l0.145,0.252l0.144,0.254l0.143,0.255l0.19,0.343l0.188,0.346l0.185,0.348l0.183,0.349l0.092,0.177l0.09,0.177l0.09,0.177l0.089,0.178l0.089,0.178l0.088,0.18l0.088,0.18l0.086,0.18l0.087,0.181l0.085,0.182l0.085,0.183l0.084,0.183l0.084,0.184l0.083,0.184l0.082,0.186l0.082,0.186l0.081,0.187l0.08,0.188l0.079,0.188l0.079,0.19l0.078,0.19l0.077,0.191l0.076,0.192l0.076,0.192l0.075,0.194l0.074,0.194l0.073,0.195l0.072,0.196l0.066,0.181l0.006,-0.018l0.108,-0.295l0.11,-0.294l0.112,-0.292l0.113,-0.289l0.115,-0.287l0.117,-0.286l0.119,-0.283l0.121,-0.281l0.122,-0.28l0.123,-0.277l0.125,-0.276l0.127,-0.274l0.128,-0.272l0.13,-0.271l0.13,-0.268l0.133,-0.268l0.133,-0.265l0.135,-0.264l0.136,-0.262l0.137,-0.261l0.138,-0.26l0.139,-0.258l0.141,-0.257l0.141,-0.255l0.143,-0.254l0.143,-0.253l0.144,-0.251l0.145,-0.251l0.146,-0.249l0.146,-0.248l0.148,-0.247l0.148,-0.246l0.148,-0.246l0.15,-0.244l0.149,-0.243l0.151,-0.243l0.151,-0.241l0.152,-0.242l0.303,-0.479l0.305,-0.477l0.307,-0.475l0.306,-0.471l0.409,-0.629l0.201,-0.311l0.2,-0.311l0.197,-0.311l0.195,-0.31l0.193,-0.311l0.094,-0.154l0.094,-0.155l0.093,-0.155l0.092,-0.156l0.092,-0.155l0.09,-0.156l0.09,-0.155l0.088,-0.156l0.087,-0.157l0.087,-0.156l0.085,-0.157l0.084,-0.157l0.083,-0.157l0.082,-0.158l0.08,-0.159l0.079,-0.158l0.078,-0.159l0.08,-0.166l0.086,-0.18l0.089,-0.183l0.173,-0.35l0.168,-0.34l0.08,-0.164l0.077,-0.162l0.073,-0.159l0.072,-0.161l0.033,-0.076l0.034,-0.078l0.032,-0.078l0.031,-0.077l0.031,-0.078l0.029,-0.077l0.029,-0.078l0.027,-0.077l0.027,-0.077l0.026,-0.078l0.024,-0.078l0.025,-0.08l0.024,-0.083l0.024,-0.086l0.024,-0.087l0.023,-0.088l0.023,-0.089l0.022,-0.09l0.022,-0.092l0.021,-0.092l0.02,-0.093l0.02,-0.094l0.018,-0.095l0.019,-0.096l0.017,-0.096l0.016,-0.098l0.016,-0.098l0.015,-0.099l0.014,-0.1l0.013,-0.1l0.012,-0.101l0.012,-0.102l0.01,-0.103l0.009,-0.102l0.009,-0.104l0.007,-0.104l0.006,-0.105l0.005,-0.106l0.004,-0.105l0.003,-0.107l0.002,-0.107l0,-0.107l-0.001,-0.107l-0.002,-0.11l-0.003,-0.109l-0.004,-0.109l-0.004,-0.107l-0.006,-0.107l-0.006,-0.107l-0.008,-0.105l-0.008,-0.104l-0.009,-0.103l-0.01,-0.103l-0.01,-0.101l-0.012,-0.101l-0.012,-0.1l-0.013,-0.099l-0.014,-0.098l-0.014,-0.097l-0.015,-0.097l-0.016,-0.096l-0.017,-0.094l-0.017,-0.094l-0.019,-0.094l-0.019,-0.093l-0.019,-0.091l-0.02,-0.091l-0.021,-0.091l-0.022,-0.089l-0.022,-0.09l-0.023,-0.088l-0.024,-0.088l-0.024,-0.086l-0.025,-0.087l-0.026,-0.086l-0.026,-0.085l-0.027,-0.084l-0.027,-0.084l-0.028,-0.083l-0.029,-0.083l-0.03,-0.082l-0.03,-0.082l-0.03,-0.081l-0.031,-0.08l-0.032,-0.08l-0.032,-0.08l-0.033,-0.079l-0.034,-0.079l-0.034,-0.078l-0.035,-0.077l-0.035,-0.077l-0.036,-0.077l-0.036,-0.076l-0.037,-0.076l-0.038,-0.076l-0.038,-0.075l-0.038,-0.074l-0.038,-0.072l-0.081,-0.15l-0.083,-0.146l-0.084,-0.145l-0.086,-0.143l-0.089,-0.143l-0.086,-0.134l-0.088,-0.134l-0.089,-0.132l-0.092,-0.131l-0.093,-0.129l-0.094,-0.127l-0.096,-0.126l-0.098,-0.125l-0.099,-0.122l-0.101,-0.122l-0.102,-0.119l-0.105,-0.119l-0.106,-0.116l-0.107,-0.115l-0.11,-0.114l-0.111,-0.112l-0.113,-0.11l-0.115,-0.109l-0.116,-0.107l-0.119,-0.105l-0.12,-0.104l-0.122,-0.102l-0.125,-0.101l-0.126,-0.099l-0.128,-0.098l-0.13,-0.096l-0.132,-0.094l-0.133,-0.092l-0.137,-0.091l-0.138,-0.09l-0.14,-0.087l-0.144,-0.087l-0.086,-0.05l-0.088,-0.051l-0.09,-0.05l-0.091,-0.049l-0.092,-0.049l-0.093,-0.049l-0.095,-0.048l-0.095,-0.047l-0.097,-0.046l-0.098,-0.046l-0.099,-0.046l-0.1,-0.044l-0.101,-0.044l-0.102,-0.043l-0.103,-0.042l-0.104,-0.041l-0.105,-0.041l-0.106,-0.04l-0.107,-0.038l-0.108,-0.038l-0.108,-0.037l-0.11,-0.037l-0.111,-0.035l-0.111,-0.034l-0.112,-0.033l-0.113,-0.032l-0.114,-0.032l-0.114,-0.03l-0.116,-0.029l-0.116,-0.028l-0.117,-0.027l-0.117,-0.026l-0.118,-0.024l-0.119,-0.024l-0.119,-0.022l-0.121,-0.021l-0.12,-0.02l-0.122,-0.019l-0.122,-0.017l-0.122,-0.016l-0.123,-0.015l-0.124,-0.014l-0.124,-0.012l-0.125,-0.011l-0.125,-0.009l-0.125,-0.009l-0.127,-0.006l-0.126,-0.006l-0.127,-0.004l-0.127,-0.002l-0.128,-0.002l-0.128,0.001Z"/>
	<path id="svg_21" serif:id="svg_2" style="fill:#4898c6;" d="M12.509,0l0.145,0.003l0.146,0.005l0.144,0.006l0.144,0.008l0.144,0.009l0.143,0.011l0.142,0.012l0.142,0.014l0.141,0.016l0.141,0.017l0.139,0.018l0.139,0.02l0.139,0.022l0.137,0.022l0.137,0.024l0.137,0.026l0.135,0.026l0.135,0.029l0.133,0.029l0.133,0.031l0.133,0.031l0.131,0.034l0.131,0.034l0.129,0.036l0.129,0.036l0.128,0.038l0.127,0.039l0.126,0.04l0.125,0.041l0.124,0.043l0.123,0.043l0.122,0.044l0.121,0.046l0.12,0.046l0.119,0.048l0.118,0.048l0.117,0.049l0.116,0.05l0.114,0.051l0.114,0.052l0.112,0.053l0.112,0.053l0.11,0.055l0.109,0.055l0.108,0.056l0.106,0.056l0.105,0.058l0.104,0.058l0.103,0.059l0.102,0.059l0.163,0.099l0.162,0.101l0.159,0.102l0.156,0.105l0.155,0.107l0.152,0.108l0.15,0.111l0.148,0.113l0.145,0.114l0.144,0.116l0.141,0.119l0.139,0.12l0.137,0.121l0.134,0.124l0.133,0.126l0.13,0.127l0.128,0.129l0.126,0.131l0.124,0.132l0.122,0.134l0.12,0.136l0.118,0.137l0.116,0.14l0.114,0.14l0.111,0.143l0.11,0.144l0.108,0.145l0.106,0.147l0.103,0.149l0.102,0.15l0.1,0.151l0.098,0.153l0.1,0.162l0.099,0.163l0.096,0.165l0.094,0.168l0.091,0.169l0.046,0.085l0.044,0.086l0.044,0.087l0.043,0.087l0.043,0.087l0.042,0.088l0.041,0.089l0.041,0.089l0.04,0.09l0.04,0.091l0.039,0.091l0.038,0.091l0.037,0.093l0.037,0.093l0.036,0.093l0.036,0.094l0.035,0.095l0.034,0.095l0.033,0.096l0.033,0.097l0.032,0.097l0.031,0.099l0.03,0.098l0.03,0.1l0.029,0.1l0.028,0.101l0.028,0.101l0.026,0.102l0.026,0.103l0.025,0.104l0.024,0.104l0.024,0.105l0.022,0.106l0.022,0.107l0.021,0.107l0.02,0.109l0.019,0.109l0.018,0.109l0.018,0.111l0.016,0.111l0.016,0.112l0.015,0.113l0.014,0.114l0.013,0.115l0.012,0.115l0.011,0.116l0.01,0.117l0.009,0.118l0.009,0.119l0.007,0.12l0.006,0.12l0.006,0.122l0.004,0.122l0.004,0.123l0.002,0.127l0.001,0.126l-0.001,0.125l-0.002,0.124l-0.003,0.124l-0.005,0.123l-0.006,0.123l-0.007,0.122l-0.008,0.121l-0.01,0.12l-0.011,0.119l-0.012,0.119l-0.013,0.118l-0.014,0.117l-0.015,0.116l-0.016,0.115l-0.017,0.114l-0.019,0.113l-0.019,0.113l-0.02,0.111l-0.021,0.11l-0.021,0.11l-0.023,0.108l-0.023,0.107l-0.024,0.106l-0.025,0.105l-0.026,0.104l-0.026,0.103l-0.027,0.102l-0.027,0.1l-0.028,0.099l-0.029,0.098l-0.029,0.098l-0.031,0.097l-0.032,0.096l-0.033,0.096l-0.033,0.094l-0.035,0.094l-0.036,0.092l-0.036,0.093l-0.037,0.091l-0.037,0.091l-0.039,0.09l-0.039,0.09l-0.079,0.178l-0.082,0.176l-0.083,0.175l-0.085,0.174l-0.17,0.347l-0.172,0.346l-0.085,0.175l-0.084,0.175l-0.082,0.171l-0.084,0.171l-0.084,0.169l-0.086,0.169l-0.087,0.168l-0.088,0.167l-0.089,0.167l-0.09,0.165l-0.091,0.166l-0.092,0.164l-0.093,0.164l-0.094,0.163l-0.095,0.163l-0.095,0.162l-0.096,0.162l-0.097,0.161l-0.097,0.161l-0.099,0.16l-0.197,0.319l-0.2,0.319l-0.202,0.317l-0.203,0.316l-0.204,0.315l-0.409,0.63l-0.305,0.47l-0.304,0.47l-0.301,0.471l-0.3,0.473l-0.149,0.238l-0.149,0.237l-0.147,0.239l-0.147,0.238l-0.147,0.24l-0.145,0.24l-0.145,0.241l-0.144,0.242l-0.144,0.242l-0.142,0.243l-0.141,0.244l-0.141,0.246l-0.139,0.246l-0.139,0.247l-0.137,0.248l-0.136,0.249l-0.135,0.25l-0.134,0.252l-0.133,0.253l-0.132,0.254l-0.13,0.255l-0.129,0.256l-0.128,0.258l-0.126,0.26l-0.125,0.261l-0.123,0.262l-0.122,0.264l-0.121,0.265l-0.119,0.267l-0.117,0.269l-0.116,0.27l-0.114,0.273l-0.112,0.273l-0.111,0.276l-0.109,0.278l-0.107,0.279l-0.105,0.282l-0.104,0.283l-0.101,0.286l-0.1,0.288l-0.097,0.289l-0.096,0.292l-0.094,0.294l-0.091,0.296l-0.09,0.299l-0.087,0.301l-0.085,0.303l-0.083,0.306l-0.081,0.308l-0.078,0.31l-0.076,0.313l-0.074,0.316l-0.072,0.318l-0.069,0.321l-0.066,0.324l-0.064,0.326l0,0l-0.044,-0.216l-0.045,-0.214l-0.046,-0.213l-0.047,-0.212l-0.048,-0.211l-0.049,-0.21l-0.05,-0.209l-0.051,-0.208l-0.052,-0.206l-0.053,-0.206l-0.053,-0.205l-0.055,-0.203l-0.056,-0.203l-0.056,-0.202l-0.058,-0.201l-0.058,-0.199l-0.06,-0.199l-0.06,-0.198l-0.061,-0.197l-0.062,-0.196l-0.063,-0.195l-0.064,-0.194l-0.064,-0.194l-0.066,-0.192l-0.066,-0.192l-0.067,-0.19l-0.068,-0.19l-0.069,-0.189l-0.07,-0.189l-0.07,-0.187l-0.071,-0.187l-0.072,-0.186l-0.073,-0.185l-0.073,-0.184l-0.074,-0.184l-0.075,-0.183l-0.076,-0.182l-0.076,-0.181l-0.077,-0.181l-0.078,-0.18l-0.079,-0.179l-0.079,-0.179l-0.08,-0.178l-0.081,-0.177l-0.081,-0.177l-0.082,-0.176l-0.082,-0.176l-0.084,-0.175l-0.083,-0.174l-0.085,-0.174l-0.085,-0.173l-0.086,-0.172l-0.086,-0.172l-0.087,-0.172l-0.088,-0.171l-0.088,-0.17l-0.178,-0.34l-0.18,-0.337l-0.182,-0.336l-0.184,-0.334l-0.139,-0.247l-0.139,-0.245l-0.141,-0.244l-0.142,-0.244l-0.143,-0.242l-0.144,-0.242l-0.145,-0.24l-0.146,-0.24l-0.146,-0.239l-0.148,-0.239l-0.148,-0.238l-0.149,-0.237l-0.299,-0.473l-0.301,-0.472l-0.302,-0.472l-0.303,-0.47l-0.304,-0.471l-0.302,-0.471l-0.302,-0.472l-0.301,-0.474l-0.15,-0.237l-0.149,-0.238l-0.148,-0.239l-0.148,-0.239l-0.097,-0.161l-0.096,-0.161l-0.095,-0.163l-0.094,-0.163l-0.093,-0.164l-0.091,-0.165l-0.183,-0.331l-0.362,-0.666l-0.184,-0.334l-0.093,-0.166l-0.094,-0.166l-0.094,-0.167l-0.093,-0.169l-0.091,-0.17l-0.09,-0.172l-0.088,-0.174l-0.087,-0.176l-0.084,-0.178l-0.083,-0.18l-0.08,-0.183l-0.04,-0.091l-0.039,-0.093l-0.038,-0.093l-0.038,-0.094l-0.037,-0.094l-0.036,-0.095l-0.036,-0.095l-0.035,-0.096l-0.034,-0.097l-0.034,-0.097l-0.033,-0.098l-0.032,-0.098l-0.032,-0.099l-0.031,-0.1l-0.03,-0.1l-0.029,-0.101l-0.028,-0.102l-0.028,-0.103l-0.026,-0.103l-0.026,-0.104l-0.025,-0.104l-0.024,-0.105l-0.024,-0.106l-0.022,-0.107l-0.021,-0.107l-0.021,-0.108l-0.019,-0.109l-0.019,-0.11l-0.017,-0.11l-0.017,-0.111l-0.015,-0.112l-0.014,-0.113l-0.014,-0.113l-0.012,-0.114l-0.011,-0.115l-0.01,-0.116l-0.009,-0.117l-0.008,-0.117l-0.007,-0.119l-0.005,-0.119l-0.005,-0.12l-0.003,-0.121l-0.002,-0.122l0,-0.122l0,-0.124l0.002,-0.124l0.003,-0.122l0.004,-0.121l0.005,-0.12l0.005,-0.119l0.007,-0.119l0.008,-0.117l0.009,-0.118l0.01,-0.116l0.01,-0.116l0.012,-0.115l0.013,-0.114l0.013,-0.113l0.014,-0.113l0.016,-0.112l0.016,-0.112l0.017,-0.11l0.018,-0.11l0.019,-0.109l0.02,-0.109l0.02,-0.108l0.022,-0.107l0.022,-0.106l0.023,-0.106l0.024,-0.105l0.024,-0.105l0.026,-0.103l0.026,-0.103l0.027,-0.103l0.028,-0.102l0.029,-0.101l0.029,-0.1l0.03,-0.1l0.031,-0.099l0.032,-0.098l0.032,-0.098l0.034,-0.097l0.033,-0.097l0.035,-0.096l0.035,-0.095l0.036,-0.094l0.037,-0.094l0.037,-0.094l0.038,-0.092l0.038,-0.092l0.04,-0.092l0.039,-0.091l0.041,-0.09l0.041,-0.089l0.042,-0.089l0.042,-0.089l0.043,-0.088l0.044,-0.087l0.044,-0.087l0.044,-0.086l0.046,-0.085l0.045,-0.085l0.047,-0.084l0.047,-0.084l0.095,-0.165l0.097,-0.164l0.1,-0.161l0.083,-0.131l0.085,-0.131l0.087,-0.129l0.089,-0.129l0.09,-0.128l0.092,-0.127l0.094,-0.126l0.096,-0.125l0.097,-0.125l0.099,-0.123l0.1,-0.122l0.103,-0.122l0.104,-0.12l0.105,-0.119l0.108,-0.118l0.109,-0.117l0.11,-0.115l0.113,-0.115l0.114,-0.113l0.116,-0.112l0.117,-0.111l0.119,-0.109l0.121,-0.108l0.122,-0.107l0.124,-0.105l0.125,-0.104l0.128,-0.102l0.129,-0.101l0.13,-0.099l0.132,-0.098l0.134,-0.096l0.135,-0.095l0.137,-0.093l0.139,-0.092l0.14,-0.09l0.142,-0.088l0.143,-0.086l0.145,-0.085l0.147,-0.083l0.148,-0.081l0.149,-0.079l0.152,-0.077l0.152,-0.076l0.155,-0.073l0.156,-0.072l0.157,-0.069l0.159,-0.068l0.161,-0.066l0.162,-0.063l0.164,-0.062l0.165,-0.059l0.167,-0.058l0.168,-0.055l0.17,-0.053l0.171,-0.05l0.173,-0.049l0.174,-0.046l0.176,-0.044l0.177,-0.042l0.179,-0.039l0.18,-0.037l0.182,-0.034l0.183,-0.032l0.185,-0.03l0.152,-0.022l0.151,-0.02l0.151,-0.019l0.15,-0.016l0.151,-0.015l0.149,-0.013l0.15,-0.011l0.149,-0.009l0.149,-0.007l0.148,-0.006l0.147,-0.003l0.148,-0.003l0.146,0l0.147,0.001Zm-0.285,0.938l-0.137,0.002l-0.136,0.003l-0.138,0.005l-0.137,0.007l-0.138,0.009l-0.138,0.01l-0.139,0.012l-0.139,0.013l-0.139,0.015l-0.14,0.017l-0.14,0.019l-0.14,0.021l-0.172,0.027l-0.17,0.03l-0.168,0.032l-0.167,0.034l-0.166,0.036l-0.164,0.039l-0.163,0.041l-0.161,0.042l-0.16,0.045l-0.158,0.047l-0.157,0.049l-0.156,0.051l-0.154,0.053l-0.153,0.055l-0.151,0.057l-0.149,0.058l-0.149,0.061l-0.146,0.062l-0.146,0.065l-0.144,0.066l-0.142,0.068l-0.141,0.069l-0.14,0.072l-0.138,0.073l-0.136,0.074l-0.135,0.077l-0.134,0.078l-0.132,0.08l-0.131,0.081l-0.13,0.083l-0.128,0.084l-0.126,0.086l-0.125,0.088l-0.123,0.089l-0.122,0.09l-0.121,0.092l-0.119,0.093l-0.117,0.095l-0.117,0.095l-0.114,0.098l-0.113,0.098l-0.112,0.1l-0.11,0.101l-0.108,0.103l-0.107,0.103l-0.106,0.105l-0.104,0.106l-0.102,0.107l-0.101,0.108l-0.1,0.109l-0.098,0.111l-0.096,0.111l-0.095,0.112l-0.093,0.114l-0.092,0.114l-0.09,0.115l-0.088,0.116l-0.087,0.117l-0.086,0.118l-0.083,0.119l-0.082,0.119l-0.081,0.12l-0.079,0.121l-0.077,0.121l-0.092,0.15l-0.09,0.151l-0.089,0.155l-0.043,0.075l-0.043,0.078l-0.042,0.078l-0.042,0.079l-0.041,0.08l-0.041,0.08l-0.04,0.08l-0.039,0.081l-0.039,0.081l-0.039,0.082l-0.038,0.083l-0.037,0.083l-0.037,0.084l-0.036,0.084l-0.035,0.085l-0.035,0.085l-0.035,0.086l-0.033,0.087l-0.033,0.087l-0.033,0.087l-0.031,0.088l-0.032,0.089l-0.03,0.09l-0.03,0.09l-0.029,0.09l-0.029,0.092l-0.027,0.092l-0.028,0.092l-0.026,0.093l-0.026,0.094l-0.025,0.095l-0.024,0.095l-0.023,0.095l-0.023,0.097l-0.022,0.097l-0.022,0.098l-0.02,0.098l-0.02,0.099l-0.019,0.1l-0.018,0.1l-0.018,0.101l-0.016,0.102l-0.016,0.103l-0.015,0.103l-0.014,0.104l-0.014,0.104l-0.012,0.106l-0.012,0.106l-0.011,0.107l-0.01,0.107l-0.009,0.109l-0.008,0.109l-0.007,0.11l-0.007,0.11l-0.005,0.112l-0.005,0.112l-0.003,0.112l-0.003,0.114l-0.002,0.115l0,0.114l0.001,0.113l0.001,0.113l0.003,0.111l0.004,0.11l0.005,0.11l0.006,0.109l0.008,0.108l0.008,0.107l0.009,0.107l0.01,0.105l0.012,0.105l0.012,0.104l0.013,0.103l0.014,0.103l0.015,0.102l0.016,0.101l0.017,0.1l0.018,0.1l0.019,0.099l0.019,0.099l0.021,0.098l0.021,0.097l0.022,0.096l0.023,0.096l0.024,0.095l0.024,0.095l0.026,0.094l0.026,0.093l0.027,0.093l0.027,0.092l0.028,0.092l0.03,0.092l0.029,0.09l0.031,0.091l0.031,0.089l0.032,0.089l0.032,0.089l0.033,0.088l0.034,0.088l0.034,0.087l0.035,0.087l0.036,0.087l0.036,0.086l0.036,0.084l0.076,0.171l0.077,0.169l0.079,0.166l0.081,0.166l0.084,0.164l0.084,0.162l0.087,0.161l0.088,0.161l0.091,0.162l0.095,0.167l0.096,0.171l0.186,0.338l0.362,0.666l0.18,0.328l0.09,0.16l0.09,0.159l0.09,0.158l0.091,0.156l0.092,0.154l0.093,0.154l0.145,0.235l0.147,0.236l0.148,0.236l0.148,0.235l0.299,0.471l0.3,0.47l0.302,0.469l0.303,0.471l0.304,0.471l0.303,0.473l0.303,0.475l0.301,0.476l0.151,0.24l0.15,0.241l0.149,0.241l0.148,0.242l0.148,0.243l0.147,0.244l0.146,0.245l0.146,0.247l0.144,0.247l0.143,0.249l0.143,0.25l0.141,0.252l0.187,0.339l0.185,0.342l0.184,0.343l0.181,0.345l0.09,0.175l0.089,0.174l0.089,0.175l0.088,0.175l0.087,0.176l0.087,0.177l0.086,0.177l0.086,0.178l0.085,0.179l0.084,0.179l0.084,0.18l0.083,0.18l0.082,0.182l0.082,0.182l0.081,0.182l0.08,0.184l0.08,0.184l0.079,0.185l0.078,0.185l0.077,0.186l0.077,0.187l0.076,0.188l0.075,0.189l0.074,0.19l0.074,0.19l0.073,0.191l0.072,0.192l0.071,0.193l0.07,0.193l0.07,0.195l0.069,0.195l0.068,0.196l0.067,0.198l0.066,0.198l0.065,0.199l0.065,0.2l0.063,0.2l0.063,0.202l0.032,0.105l0.039,-0.132l0.094,-0.304l0.096,-0.301l0.098,-0.3l0.1,-0.297l0.103,-0.295l0.104,-0.293l0.106,-0.29l0.108,-0.289l0.109,-0.286l0.112,-0.285l0.113,-0.282l0.116,-0.281l0.116,-0.279l0.119,-0.276l0.12,-0.275l0.121,-0.274l0.124,-0.271l0.124,-0.27l0.127,-0.268l0.127,-0.266l0.129,-0.265l0.13,-0.263l0.132,-0.262l0.133,-0.261l0.134,-0.258l0.135,-0.258l0.137,-0.256l0.137,-0.255l0.139,-0.254l0.14,-0.252l0.14,-0.251l0.142,-0.25l0.143,-0.249l0.143,-0.248l0.145,-0.246l0.145,-0.246l0.146,-0.245l0.146,-0.244l0.148,-0.243l0.148,-0.242l0.149,-0.242l0.149,-0.24l0.15,-0.24l0.15,-0.24l0.302,-0.477l0.304,-0.474l0.305,-0.473l0.306,-0.471l0.409,-0.629l0.202,-0.313l0.201,-0.313l0.2,-0.314l0.196,-0.313l0.195,-0.315l0.096,-0.156l0.096,-0.158l0.094,-0.158l0.094,-0.157l0.093,-0.159l0.092,-0.158l0.092,-0.159l0.09,-0.159l0.089,-0.16l0.089,-0.16l0.087,-0.161l0.086,-0.161l0.085,-0.161l0.084,-0.162l0.083,-0.163l0.081,-0.163l0.08,-0.164l0.081,-0.168l0.085,-0.178l0.088,-0.179l0.172,-0.349l0.17,-0.343l0.081,-0.168l0.079,-0.167l0.077,-0.167l0.076,-0.168l0.035,-0.081l0.035,-0.083l0.035,-0.084l0.034,-0.083l0.033,-0.084l0.032,-0.083l0.031,-0.085l0.03,-0.084l0.029,-0.085l0.028,-0.085l0.028,-0.086l0.026,-0.087l0.026,-0.09l0.026,-0.091l0.025,-0.093l0.025,-0.094l0.024,-0.095l0.024,-0.095l0.023,-0.097l0.022,-0.099l0.022,-0.098l0.02,-0.1l0.02,-0.101l0.02,-0.102l0.018,-0.103l0.018,-0.104l0.016,-0.104l0.016,-0.105l0.015,-0.107l0.014,-0.106l0.013,-0.108l0.012,-0.109l0.011,-0.109l0.01,-0.11l0.009,-0.11l0.008,-0.111l0.006,-0.112l0.006,-0.113l0.004,-0.113l0.003,-0.114l0.002,-0.114l0,-0.114l0,-0.116l-0.003,-0.116l-0.003,-0.115l-0.004,-0.114l-0.005,-0.114l-0.006,-0.113l-0.007,-0.111l-0.007,-0.111l-0.009,-0.11l-0.01,-0.109l-0.01,-0.109l-0.011,-0.107l-0.012,-0.106l-0.013,-0.106l-0.014,-0.105l-0.014,-0.104l-0.016,-0.103l-0.016,-0.102l-0.017,-0.102l-0.017,-0.101l-0.019,-0.1l-0.019,-0.099l-0.02,-0.098l-0.021,-0.098l-0.022,-0.097l-0.022,-0.096l-0.023,-0.096l-0.024,-0.094l-0.024,-0.095l-0.026,-0.093l-0.025,-0.093l-0.027,-0.092l-0.027,-0.091l-0.028,-0.091l-0.029,-0.09l-0.029,-0.09l-0.03,-0.089l-0.031,-0.088l-0.031,-0.087l-0.032,-0.088l-0.033,-0.086l-0.033,-0.086l-0.034,-0.085l-0.035,-0.085l-0.035,-0.085l-0.036,-0.083l-0.036,-0.083l-0.037,-0.083l-0.038,-0.082l-0.038,-0.082l-0.038,-0.081l-0.04,-0.081l-0.04,-0.08l-0.04,-0.08l-0.041,-0.08l-0.041,-0.077l-0.086,-0.158l-0.087,-0.155l-0.089,-0.153l-0.091,-0.152l-0.094,-0.15l-0.091,-0.143l-0.093,-0.141l-0.094,-0.139l-0.097,-0.138l-0.098,-0.137l-0.1,-0.135l-0.102,-0.133l-0.103,-0.132l-0.106,-0.13l-0.107,-0.129l-0.109,-0.127l-0.111,-0.126l-0.112,-0.124l-0.115,-0.122l-0.116,-0.121l-0.118,-0.119l-0.121,-0.117l-0.122,-0.116l-0.124,-0.114l-0.126,-0.112l-0.128,-0.111l-0.13,-0.109l-0.132,-0.107l-0.134,-0.105l-0.137,-0.104l-0.138,-0.102l-0.14,-0.1l-0.143,-0.099l-0.145,-0.096l-0.146,-0.095l-0.15,-0.093l-0.152,-0.092l-0.092,-0.054l-0.094,-0.054l-0.096,-0.054l-0.097,-0.052l-0.098,-0.053l-0.099,-0.051l-0.101,-0.051l-0.101,-0.05l-0.103,-0.05l-0.104,-0.048l-0.105,-0.048l-0.106,-0.048l-0.107,-0.046l-0.109,-0.046l-0.109,-0.044l-0.11,-0.044l-0.112,-0.043l-0.112,-0.042l-0.113,-0.041l-0.114,-0.041l-0.115,-0.039l-0.117,-0.038l-0.116,-0.037l-0.118,-0.037l-0.119,-0.035l-0.12,-0.034l-0.12,-0.033l-0.121,-0.032l-0.122,-0.031l-0.123,-0.029l-0.124,-0.029l-0.124,-0.027l-0.125,-0.026l-0.125,-0.025l-0.127,-0.023l-0.127,-0.023l-0.128,-0.021l-0.128,-0.02l-0.129,-0.018l-0.13,-0.017l-0.13,-0.016l-0.131,-0.014l-0.132,-0.013l-0.132,-0.012l-0.132,-0.01l-0.133,-0.009l-0.134,-0.007l-0.134,-0.006l-0.135,-0.004l-0.135,-0.003l-0.135,-0.001l-0.136,0.001Z"/>
	<ellipse id="svg_4" style="fill:#fff;stroke:#6fb5de;stroke-width:3.75px;" cx="12.387" cy="12.222" rx="4.379" ry="4.439" />
	<ellipse id="svg_41" serif:id="svg_4" style="fill:#fff;stroke:#4898c6;stroke-width:1.25px;" cx="12.387" cy="12.222" rx="4.379" ry="4.439" />
	</g></svg>